Eight talented candidates have reached the final stage of selection to join the ranks of a mysterious and powerful corporation. Entering a windowless room, an Invigilator gives them eighty minutes to answer one simple question. He outlines three rules they must obey or be disqualified: don't talk to him or the armed guard by the door, don't spoil their papers and don't leave the room. He starts the clock and leaves.

Subtitles (srt) : Dutch, English.
  
http://www.imdb.com/title/tt1258197/

Covers included.

Een groepje van acht getalenteerde kandidaten is geslaagd voor een laatste test en mag nu deel worden van een machtige, maar mysterieuze organisatie. Ze gaan een kamer zonder ramen binnen en krijgen hier tachtig minuten de tijd om slechts één vraag te beantwoorden. Er zijn echter wel een paar regels waaraan ze moeten voldoen, anders worden ze gediskwalificeerd; ze mogen niet praten tegen de opdrachtgever, de bewapende bewaker bij de deur, hun vragenlijsten bekladderen, of de kamer verlaten.

Ondertiteling (srt) : Engels, Nederlands.
  
http://www.moviemeter.nl/film/61981

Hoesjes bijgevoegd.

General
Complete name                    : Exam-AC3-XviD-DVDRip[Eng]2009 2Lions-TeamExam-AC3-XviD-DVDRip[Eng]2009.avi
Format                           : AVI
Format/Info                      : Audio Video Interleave
File size                        : 1.02 GiB
Duration                         : 1h 36mn
Overall bit rate                 : 1 514 Kbps
Writing application              : VirtualDubMod 1.5.4.1 (build 2178/release)
Writing library                  : VirtualDubMod build 2178/release

Video
ID                               : 0
Format                           : MPEG-4 Visual
Format profile                   : Simple@L3
Format settings, BVOP            : No
Format settings, QPel            : No
Format settings, GMC             : No warppoints
Format settings, Matrix          : Default (H.263)
Codec ID                         : XVID
Codec ID/Hint                    : XviD
Duration                         : 1h 36mn
Bit rate                         : 1 056 Kbps
Width                            : 720 pixels
Height                           : 304 pixels
Display aspect ratio             : 2.35:1
Frame rate                       : 25.000 fps
Resolution                       : 8 bits
Colorimetry                      : 4:2:0
Scan type                        : Progressive
Bits/(Pixel*Frame)               : 0.193
Stream size                      : 732 MiB (70%)
Writing library                  : XviD 1.1.2 (UTC 2006-11-01)

Audio
ID                               : 1
Format                           : AC-3
Format/Info                      : Audio Coding 3
Format_Settings_ModeExtension    : CM (complete main)
Codec ID                         : 2000
Duration                         : 1h 36mn
Bit rate mode                    : Constant
Bit rate                         : 448 Kbps
Channel(s)                       : 6 channels
Channel positions                : Front: L C R, Side: L R, LFE
Sampling rate                    : 48.0 KHz
Stream size                      : 310 MiB (30%)
Alignment                        : Split accross interleaves
Interleave, duration             : 40 ms (1.00 video frame)
Interleave, preload duration     : 500 ms

Brought to you by 
2Lions Team

meer zien??
Kom dan eens kijken op ons forum 
                     
http://www.2lions.ons-forum.nl

2Lions the site to be for all your Dutch MOVIES and more

******************************************

DON T HIT AND RUN Niet gelijk afhaken als de FILM binnen is blijf seeden. 

Don`t quit after you finished the download, but keep seeding

There are fake torrents from uploaders who use our team name.
Those are not ours, or members from our team.
We 2Lions-Team are not responsible for the fake posts on our name

Wij 2Lions-Team zijn niet verantwoordelijk voor die zieke FAKE posten die op onze naam worden gedaan

Please check our site !!!

to the fakers, get a life !!!